<?xml version="1.0" encoding="UTF-8"?>
<svg id="Layer_1" data-name="Layer 1" xmlns="http://www.w3.org/2000/svg" viewBox="0 0 49.6 63.37">
  <defs>
    <style>
      .cls-1 {
        fill: none;
        stroke: #cfdcb5;
        stroke-miterlimit: 10;
        stroke-width: 2px;
      }
    </style>
  </defs>
  <path class="cls-1" d="M33.12,7.29c9.72,2.31,14.14,9.05,14.14,9.05,0,0-9.61-2.86-12.68,5.22,0,0-7.67-5.42-14.32-1.02,0,0-6.69-7.52-14.73-4.19"/>
  <path class="cls-1" d="M5.53,16.34s5.24-8,16.87-9.56"/>
  <path class="cls-1" d="M44.81,52.14s-6.44,10.23-20.87,10.23S3.08,52.14,3.08,52.14c0,0,9.21,5.52,13.5,0,0,0,6.34,8.69,28.23.15"/>
  <path class="cls-1" d="M22.31,12.86s4.47,4.04,9.92,0"/>
  <path class="cls-1" d="M35.4,1s-8.13.51-8.13,10.94"/>
  <line class="cls-1" x1="35.4" y1="45.39" x2="38.67" y2="50.91"/>
  <polyline class="cls-1" points="42.35 20.23 34.99 31.27 36.22 36.18 31.31 44.77"/>
  <polyline class="cls-1" points="11.67 19 16.58 28.82 14.12 34.96 16.58 41.09 9.21 50.91"/>
  <line class="cls-1" x1="16.58" y1="28.82" x2="20.26" y2="32.5"/>
  <line class="cls-1" x1="31.31" y1="44.77" x2="25.99" y2="46"/>
</svg>